<?xml version="1.0"?>
<!DOCTYPE svg PUBLIC "-//W3C//DTD SVG 1.1//EN" "http://www.w3.org/Graphics/SVG/1.1/DTD/svg11.dtd">
<svg width="139.74mm" height="96.74mm" viewBox="0 0 139.74 96.74" xmlns="http://www.w3.org/2000/svg" version="1.1">
<g id="Extrude001" transform="translate(9.370000,185.370000) scale(1,-1)">
<path id="Extrude001_f0000"  d="M 125.0 90.0 L -4.0 90.0 L -4.0 90.0 L 125.0 90.0 L 125.0 90.0 Z " stroke="#000000" stroke-width="0.35 px" style="stroke-width:0.35;stroke-miterlimit:4;stroke-dasharray:none;fill:#cccccc;fill-rule: evenodd "/>
<path id="Extrude001_f0001"  d="M 129.0 94.0 A 4 4 0 0 0 125 90L 125.0 90.0 A 4 4 0 0 1 129 94L 129.0 94.0 Z " stroke="#000000" stroke-width="0.35 px" style="stroke-width:0.35;stroke-miterlimit:4;stroke-dasharray:none;fill:#cccccc;fill-rule: evenodd "/>
<path id="Extrude001_f0002"  d="M 129.0 180.0 L 129.0 94.0 L 129.0 94.0 L 129.0 180.0 L 129.0 180.0 Z " stroke="#000000" stroke-width="0.35 px" style="stroke-width:0.35;stroke-miterlimit:4;stroke-dasharray:none;fill:#cccccc;fill-rule: evenodd "/>
<path id="Extrude001_f0003"  d="M 125.0 184.0 A 4 4 0 0 0 129 180L 129.0 180.0 A 4 4 0 0 1 125 184L 125.0 184.0 Z " stroke="#000000" stroke-width="0.35 px" style="stroke-width:0.35;stroke-miterlimit:4;stroke-dasharray:none;fill:#cccccc;fill-rule: evenodd "/>
<path id="Extrude001_f0004"  d="M -4.0 184.0 L 125.0 184.0 L 125.0 184.0 L -4.0 184.0 L -4.0 184.0 Z " stroke="#000000" stroke-width="0.35 px" style="stroke-width:0.35;stroke-miterlimit:4;stroke-dasharray:none;fill:#cccccc;fill-rule: evenodd "/>
<path id="Extrude001_f0005"  d="M -8.0 180.0 A 4 4 0 0 0 -4 184L -4.0 184.0 A 4 4 0 0 1 -8 180L -8.0 180.0 Z " stroke="#000000" stroke-width="0.35 px" style="stroke-width:0.35;stroke-miterlimit:4;stroke-dasharray:none;fill:#cccccc;fill-rule: evenodd "/>
<path id="Extrude001_f0006"  d="M -8.0 94.0 L -8.0 180.0 L -8.0 180.0 L -8.0 94.0 L -8.0 94.0 Z " stroke="#000000" stroke-width="0.35 px" style="stroke-width:0.35;stroke-miterlimit:4;stroke-dasharray:none;fill:#cccccc;fill-rule: evenodd "/>
<path id="Extrude001_f0007"  d="M -4.0 90.0 A 4 4 0 0 0 -8 94L -8.0 94.0 A 4 4 0 0 1 -4 90L -4.0 90.0 Z " stroke="#000000" stroke-width="0.35 px" style="stroke-width:0.35;stroke-miterlimit:4;stroke-dasharray:none;fill:#cccccc;fill-rule: evenodd "/>
<path id="Extrude001_f0008"  d="M 116.0 169.5 L 5.0 169.5 L 5.0 169.5 L 116.0 169.5 L 116.0 169.5 Z " stroke="#000000" stroke-width="0.35 px" style="stroke-width:0.35;stroke-miterlimit:4;stroke-dasharray:none;fill:#cccccc;fill-rule: evenodd "/>
<path id="Extrude001_f0009"  d="M 116.0 103.3 L 116.0 169.5 L 116.0 169.5 L 116.0 103.3 L 116.0 103.3 Z " stroke="#000000" stroke-width="0.35 px" style="stroke-width:0.35;stroke-miterlimit:4;stroke-dasharray:none;fill:#cccccc;fill-rule: evenodd "/>
<path id="Extrude001_f0010"  d="M 5.0 103.3 L 116.0 103.3 L 116.0 103.3 L 5.0 103.3 L 5.0 103.3 Z " stroke="#000000" stroke-width="0.35 px" style="stroke-width:0.35;stroke-miterlimit:4;stroke-dasharray:none;fill:#cccccc;fill-rule: evenodd "/>
<path id="Extrude001_f0011"  d="M 5.0 169.5 L 5.0 103.3 L 5.0 103.3 L 5.0 169.5 L 5.0 169.5 Z " stroke="#000000" stroke-width="0.35 px" style="stroke-width:0.35;stroke-miterlimit:4;stroke-dasharray:none;fill:#cccccc;fill-rule: evenodd "/>
<path id="Extrude001_f0012"  d="M 9.9 97.5 L 3.3 97.5 L 3.3 97.5 L 9.9 97.5 L 9.9 97.5 Z " stroke="#000000" stroke-width="0.35 px" style="stroke-width:0.35;stroke-miterlimit:4;stroke-dasharray:none;fill:#cccccc;fill-rule: evenodd "/>
<path id="Extrude001_f0013"  d="M 9.9 92.5 L 9.9 97.5 L 9.9 97.5 L 9.9 92.5 L 9.9 92.5 Z " stroke="#000000" stroke-width="0.35 px" style="stroke-width:0.35;stroke-miterlimit:4;stroke-dasharray:none;fill:#cccccc;fill-rule: evenodd "/>
<path id="Extrude001_f0014"  d="M 3.3 92.5 L 9.9 92.5 L 9.9 92.5 L 3.3 92.5 L 3.3 92.5 Z " stroke="#000000" stroke-width="0.35 px" style="stroke-width:0.35;stroke-miterlimit:4;stroke-dasharray:none;fill:#cccccc;fill-rule: evenodd "/>
<path id="Extrude001_f0015"  d="M 3.3 97.5 L 3.3 92.5 L 3.3 92.5 L 3.3 97.5 L 3.3 97.5 Z " stroke="#000000" stroke-width="0.35 px" style="stroke-width:0.35;stroke-miterlimit:4;stroke-dasharray:none;fill:#cccccc;fill-rule: evenodd "/>
<path id="Extrude001_f0016"  d="M 117.7 97.5 L 111.1 97.5 L 111.1 97.5 L 117.7 97.5 L 117.7 97.5 Z " stroke="#000000" stroke-width="0.35 px" style="stroke-width:0.35;stroke-miterlimit:4;stroke-dasharray:none;fill:#cccccc;fill-rule: evenodd "/>
<path id="Extrude001_f0017"  d="M 117.7 92.5 L 117.7 97.5 L 117.7 97.5 L 117.7 92.5 L 117.7 92.5 Z " stroke="#000000" stroke-width="0.35 px" style="stroke-width:0.35;stroke-miterlimit:4;stroke-dasharray:none;fill:#cccccc;fill-rule: evenodd "/>
<path id="Extrude001_f0018"  d="M 111.1 92.5 L 117.7 92.5 L 117.7 92.5 L 111.1 92.5 L 111.1 92.5 Z " stroke="#000000" stroke-width="0.35 px" style="stroke-width:0.35;stroke-miterlimit:4;stroke-dasharray:none;fill:#cccccc;fill-rule: evenodd "/>
<path id="Extrude001_f0019"  d="M 111.1 97.5 L 111.1 92.5 L 111.1 92.5 L 111.1 97.5 L 111.1 97.5 Z " stroke="#000000" stroke-width="0.35 px" style="stroke-width:0.35;stroke-miterlimit:4;stroke-dasharray:none;fill:#cccccc;fill-rule: evenodd "/>
<path id="Extrude001_f0020"  d="M 125.0 90.0 A 4 4 0 0 1 129 94L 129.0 180.0 A 4 4 0 0 1 125 184L -4.0 184.0 A 4 4 0 0 1 -8 180L -8.0 94.0 A 4 4 0 0 1 -4 90L 125.0 90.0 Z M 116.0 169.5 L 116.0 103.3 L 5.0 103.3 L 5.0 169.5 L 116.0 169.5 Z M 9.9 97.5 L 9.9 92.5 L 3.3 92.5 L 3.3 97.5 L 9.9 97.5 Z M 117.7 97.5 L 117.7 92.5 L 111.1 92.5 L 111.1 97.5 L 117.7 97.5 Z " stroke="#000000" stroke-width="0.35 px" style="stroke-width:0.35;stroke-miterlimit:4;stroke-dasharray:none;fill:#cccccc;fill-rule: evenodd "/>
<path id="Extrude001_f0021"  d="M -4.0 90.0 L 125.0 90.0 A 4 4 0 0 1 129 94L 129.0 180.0 A 4 4 0 0 1 125 184L -4.0 184.0 A 4 4 0 0 1 -8 180L -8.0 94.0 A 4 4 0 0 1 -4 90Z M 5.0 169.5 L 116.0 169.5 L 116.0 103.3 L 5.0 103.3 L 5.0 169.5 Z M 3.3 97.5 L 9.9 97.5 L 9.9 92.5 L 3.3 92.5 L 3.3 97.5 Z M 111.1 97.5 L 117.7 97.5 L 117.7 92.5 L 111.1 92.5 L 111.1 97.5 Z " stroke="#000000" stroke-width="0.35 px" style="stroke-width:0.35;stroke-miterlimit:4;stroke-dasharray:none;fill:#cccccc;fill-rule: evenodd "/>
<title>Bevel</title>
</g>
</svg>