<?xml version="1.0"?>
<!DOCTYPE svg PUBLIC "-//W3C//DTD SVG 1.1//EN" "http://www.w3.org/Graphics/SVG/1.1/DTD/svg11.dtd">
<svg width="139.74mm" height="96.74mm" viewBox="0 0 139.74 96.74" xmlns="http://www.w3.org/2000/svg" version="1.1">
<g id="Extrude" transform="translate(9.370000,85.370000) scale(1,-1)">
<path id="Extrude_f0000"  d="M 125.0 -10.0 L -4.0 -10.0 L -4.0 -10.0 L 125.0 -10.0 L 125.0 -10.0 Z " stroke="#000000" stroke-width="0.35 px" style="stroke-width:0.35;stroke-miterlimit:4;stroke-dasharray:none;fill:#cccccc;fill-rule: evenodd "/>
<path id="Extrude_f0001"  d="M 129.0 -6.0 A 4 4 0 0 0 125 -10L 125.0 -10.0 A 4 4 0 0 1 129 -6L 129.0 -6.0 Z " stroke="#000000" stroke-width="0.35 px" style="stroke-width:0.35;stroke-miterlimit:4;stroke-dasharray:none;fill:#cccccc;fill-rule: evenodd "/>
<path id="Extrude_f0002"  d="M 129.0 80.0 L 129.0 -6.0 L 129.0 -6.0 L 129.0 80.0 L 129.0 80.0 Z " stroke="#000000" stroke-width="0.35 px" style="stroke-width:0.35;stroke-miterlimit:4;stroke-dasharray:none;fill:#cccccc;fill-rule: evenodd "/>
<path id="Extrude_f0003"  d="M 125.0 84.0 A 4 4 0 0 0 129 80L 129.0 80.0 A 4 4 0 0 1 125 84L 125.0 84.0 Z " stroke="#000000" stroke-width="0.35 px" style="stroke-width:0.35;stroke-miterlimit:4;stroke-dasharray:none;fill:#cccccc;fill-rule: evenodd "/>
<path id="Extrude_f0004"  d="M -4.0 84.0 L 125.0 84.0 L 125.0 84.0 L -4.0 84.0 L -4.0 84.0 Z " stroke="#000000" stroke-width="0.35 px" style="stroke-width:0.35;stroke-miterlimit:4;stroke-dasharray:none;fill:#cccccc;fill-rule: evenodd "/>
<path id="Extrude_f0005"  d="M -8.0 80.0 A 4 4 0 0 0 -4 84L -4.0 84.0 A 4 4 0 0 1 -8 80L -8.0 80.0 Z " stroke="#000000" stroke-width="0.35 px" style="stroke-width:0.35;stroke-miterlimit:4;stroke-dasharray:none;fill:#cccccc;fill-rule: evenodd "/>
<path id="Extrude_f0006"  d="M -8.0 -6.0 L -8.0 80.0 L -8.0 80.0 L -8.0 -6.0 L -8.0 -6.0 Z " stroke="#000000" stroke-width="0.35 px" style="stroke-width:0.35;stroke-miterlimit:4;stroke-dasharray:none;fill:#cccccc;fill-rule: evenodd "/>
<path id="Extrude_f0007"  d="M -4.0 -10.0 A 4 4 0 0 0 -8 -6L -8.0 -6.0 A 4 4 0 0 1 -4 -10L -4.0 -10.0 Z " stroke="#000000" stroke-width="0.35 px" style="stroke-width:0.35;stroke-miterlimit:4;stroke-dasharray:none;fill:#cccccc;fill-rule: evenodd "/>
<path id="Extrude_f0008"  d="M 0.0 0.0 L 0.0 0.0 L 121.0 0.0 L 121.0 0.0 L 0.0 0.0 Z " stroke="#000000" stroke-width="0.35 px" style="stroke-width:0.35;stroke-miterlimit:4;stroke-dasharray:none;fill:#cccccc;fill-rule: evenodd "/>
<path id="Extrude_f0009"  d="M 121.0 0.0 L 121.0 0.0 L 121.0 76.0 L 121.0 76.0 L 121.0 0.0 Z " stroke="#000000" stroke-width="0.35 px" style="stroke-width:0.35;stroke-miterlimit:4;stroke-dasharray:none;fill:#cccccc;fill-rule: evenodd "/>
<path id="Extrude_f0010"  d="M 121.0 76.0 L 121.0 76.0 L 0.0 76.0 L 0.0 76.0 L 121.0 76.0 Z " stroke="#000000" stroke-width="0.35 px" style="stroke-width:0.35;stroke-miterlimit:4;stroke-dasharray:none;fill:#cccccc;fill-rule: evenodd "/>
<path id="Extrude_f0011"  d="M 0.0 76.0 L 0.0 76.0 L 0.0 0.0 L 0.0 0.0 L 0.0 76.0 Z " stroke="#000000" stroke-width="0.35 px" style="stroke-width:0.35;stroke-miterlimit:4;stroke-dasharray:none;fill:#cccccc;fill-rule: evenodd "/>
<path id="Extrude_f0012"  d="M 117.7 -2.5 L 111.1 -2.5 L 111.1 -2.5 L 117.7 -2.5 L 117.7 -2.5 Z " stroke="#000000" stroke-width="0.35 px" style="stroke-width:0.35;stroke-miterlimit:4;stroke-dasharray:none;fill:#cccccc;fill-rule: evenodd "/>
<path id="Extrude_f0013"  d="M 117.7 -7.5 L 117.7 -2.5 L 117.7 -2.5 L 117.7 -7.5 L 117.7 -7.5 Z " stroke="#000000" stroke-width="0.35 px" style="stroke-width:0.35;stroke-miterlimit:4;stroke-dasharray:none;fill:#cccccc;fill-rule: evenodd "/>
<path id="Extrude_f0014"  d="M 111.1 -7.5 L 117.7 -7.5 L 117.7 -7.5 L 111.1 -7.5 L 111.1 -7.5 Z " stroke="#000000" stroke-width="0.35 px" style="stroke-width:0.35;stroke-miterlimit:4;stroke-dasharray:none;fill:#cccccc;fill-rule: evenodd "/>
<path id="Extrude_f0015"  d="M 111.1 -2.5 L 111.1 -7.5 L 111.1 -7.5 L 111.1 -2.5 L 111.1 -2.5 Z " stroke="#000000" stroke-width="0.35 px" style="stroke-width:0.35;stroke-miterlimit:4;stroke-dasharray:none;fill:#cccccc;fill-rule: evenodd "/>
<path id="Extrude_f0016"  d="M 9.9 -2.5 L 3.3 -2.5 L 3.3 -2.5 L 9.9 -2.5 L 9.9 -2.5 Z " stroke="#000000" stroke-width="0.35 px" style="stroke-width:0.35;stroke-miterlimit:4;stroke-dasharray:none;fill:#cccccc;fill-rule: evenodd "/>
<path id="Extrude_f0017"  d="M 9.9 -7.5 L 9.9 -2.5 L 9.9 -2.5 L 9.9 -7.5 L 9.9 -7.5 Z " stroke="#000000" stroke-width="0.35 px" style="stroke-width:0.35;stroke-miterlimit:4;stroke-dasharray:none;fill:#cccccc;fill-rule: evenodd "/>
<path id="Extrude_f0018"  d="M 3.3 -7.5 L 9.9 -7.5 L 9.9 -7.5 L 3.3 -7.5 L 3.3 -7.5 Z " stroke="#000000" stroke-width="0.35 px" style="stroke-width:0.35;stroke-miterlimit:4;stroke-dasharray:none;fill:#cccccc;fill-rule: evenodd "/>
<path id="Extrude_f0019"  d="M 3.3 -2.5 L 3.3 -7.5 L 3.3 -7.5 L 3.3 -2.5 L 3.3 -2.5 Z " stroke="#000000" stroke-width="0.35 px" style="stroke-width:0.35;stroke-miterlimit:4;stroke-dasharray:none;fill:#cccccc;fill-rule: evenodd "/>
<path id="Extrude_f0020"  d="M 125.0 -10.0 A 4 4 0 0 1 129 -6L 129.0 80.0 A 4 4 0 0 1 125 84L -4.0 84.0 A 4 4 0 0 1 -8 80L -8.0 -6.0 A 4 4 0 0 1 -4 -10L 125.0 -10.0 Z M 0.0 0.0 L 121.0 0.0 L 121.0 76.0 L 0.0 76.0 L 0.0 0.0 Z M 117.7 -2.5 L 117.7 -7.5 L 111.1 -7.5 L 111.1 -2.5 L 117.7 -2.5 Z M 9.9 -2.5 L 9.9 -7.5 L 3.3 -7.5 L 3.3 -2.5 L 9.9 -2.5 Z " stroke="#000000" stroke-width="0.35 px" style="stroke-width:0.35;stroke-miterlimit:4;stroke-dasharray:none;fill:#cccccc;fill-rule: evenodd "/>
<path id="Extrude_f0021"  d="M -4.0 -10.0 L 125.0 -10.0 A 4 4 0 0 1 129 -6L 129.0 80.0 A 4 4 0 0 1 125 84L -4.0 84.0 A 4 4 0 0 1 -8 80L -8.0 -6.0 A 4 4 0 0 1 -4 -10Z M 121.0 0.0 L 121.0 76.0 L 0.0 76.0 L 0.0 0.0 L 121.0 0.0 Z M 111.1 -2.5 L 117.7 -2.5 L 117.7 -7.5 L 111.1 -7.5 L 111.1 -2.5 Z M 3.3 -2.5 L 9.9 -2.5 L 9.9 -7.5 L 3.3 -7.5 L 3.3 -2.5 Z " stroke="#000000" stroke-width="0.35 px" style="stroke-width:0.35;stroke-miterlimit:4;stroke-dasharray:none;fill:#cccccc;fill-rule: evenodd "/>
<title>Border</title>
</g>
</svg>