<svg xmlns="http://www.w3.org/2000/svg" width="139mm" height="101.2mm" viewBox="0 0 139 101.2">
<g transform="translate(0, 101.2)">
<g transform="scale(1, -1)">
<g transform="translate(69.5, 50.6)">
<path d="M 63.824 44.732 A 1.1 1.1 0 0 1 65.368 44.924" fill="none" stroke="rgb(0,0,255)" stroke-width="0.0254"/>
<path d="M 65.368 44.924 A 1.1 1.1 0 0 1 65.176 46.468" fill="none" stroke="rgb(0,0,255)" stroke-width="0.0254"/>
<path d="M 65.176 46.468 A 1.1 1.1 0 0 1 63.632 46.276" fill="none" stroke="rgb(0,0,255)" stroke-width="0.0254"/>
<path d="M 63.632 46.276 A 1.1 1.1 0 0 1 63.824 44.732" fill="none" stroke="rgb(0,0,255)" stroke-width="0.0254"/>
<line x1="60.35" y1="0.55" x2="60.35" y2="41.45" stroke="rgb(0,0,255)" stroke-width="0.0254"/>
<line x1="60.35" y1="41.45" x2="-60.35" y2="41.45" stroke="rgb(0,0,255)" stroke-width="0.0254"/>
<line x1="-60.35" y1="41.45" x2="-60.35" y2="-34.45" stroke="rgb(0,0,255)" stroke-width="0.0254"/>
<line x1="-60.35" y1="-34.45" x2="60.35" y2="-34.45" stroke="rgb(0,0,255)" stroke-width="0.0254"/>
<line x1="60.35" y1="-34.45" x2="60.35" y2="0.55" stroke="rgb(0,0,255)" stroke-width="0.0254"/>
<line x1="56.931" y1="-38.75" x2="51.35" y2="-38.75" stroke="rgb(0,0,255)" stroke-width="0.0254"/>
<line x1="51.35" y1="-38.75" x2="51.35" y2="-45.45" stroke="rgb(0,0,255)" stroke-width="0.0254"/>
<line x1="51.35" y1="-45.45" x2="57.25" y2="-45.45" stroke="rgb(0,0,255)" stroke-width="0.0254"/>
<line x1="57.25" y1="-45.45" x2="57.25" y2="-38.75" stroke="rgb(0,0,255)" stroke-width="0.0254"/>
<line x1="57.25" y1="-38.75" x2="56.931" y2="-38.75" stroke="rgb(0,0,255)" stroke-width="0.0254"/>
<path d="M 63.632 -44.924 A 1.1 1.1 0 0 1 63.824 -46.468" fill="none" stroke="rgb(0,0,255)" stroke-width="0.0254"/>
<path d="M 63.824 -46.468 A 1.1 1.1 0 0 1 65.368 -46.276" fill="none" stroke="rgb(0,0,255)" stroke-width="0.0254"/>
<path d="M 65.368 -46.276 A 1.1 1.1 0 0 1 65.176 -44.732" fill="none" stroke="rgb(0,0,255)" stroke-width="0.0254"/>
<path d="M 65.176 -44.732 A 1.1 1.1 0 0 1 63.632 -44.924" fill="none" stroke="rgb(0,0,255)" stroke-width="0.0254"/>
<line x1="-51.35" y1="-45.131" x2="-51.35" y2="-38.75" stroke="rgb(0,0,255)" stroke-width="0.0254"/>
<line x1="-51.35" y1="-38.75" x2="-57.25" y2="-38.75" stroke="rgb(0,0,255)" stroke-width="0.0254"/>
<line x1="-57.25" y1="-38.75" x2="-57.25" y2="-45.45" stroke="rgb(0,0,255)" stroke-width="0.0254"/>
<line x1="-57.25" y1="-45.45" x2="-51.35" y2="-45.45" stroke="rgb(0,0,255)" stroke-width="0.0254"/>
<line x1="-51.35" y1="-45.45" x2="-51.35" y2="-45.131" stroke="rgb(0,0,255)" stroke-width="0.0254"/>
<path d="M -63.824 -44.732 A 1.1 1.1 0 0 1 -65.368 -44.924" fill="none" stroke="rgb(0,0,255)" stroke-width="0.0254"/>
<path d="M -65.368 -44.924 A 1.1 1.1 0 0 1 -65.176 -46.468" fill="none" stroke="rgb(0,0,255)" stroke-width="0.0254"/>
<path d="M -65.176 -46.468 A 1.1 1.1 0 0 1 -63.632 -46.276" fill="none" stroke="rgb(0,0,255)" stroke-width="0.0254"/>
<path d="M -63.632 -46.276 A 1.1 1.1 0 0 1 -63.824 -44.732" fill="none" stroke="rgb(0,0,255)" stroke-width="0.0254"/>
<path d="M -64.492 44.5 A 1.1 1.1 0 0 1 -63.4 45.608" fill="none" stroke="rgb(0,0,255)" stroke-width="0.0254"/>
<path d="M -63.4 45.608 A 1.1 1.1 0 0 1 -64.508 46.7" fill="none" stroke="rgb(0,0,255)" stroke-width="0.0254"/>
<path d="M -64.508 46.7 A 1.1 1.1 0 0 1 -65.6 45.592" fill="none" stroke="rgb(0,0,255)" stroke-width="0.0254"/>
<path d="M -65.6 45.592 A 1.1 1.1 0 0 1 -64.492 44.5" fill="none" stroke="rgb(0,0,255)" stroke-width="0.0254"/>
<line x1="-68.35" y1="44.5" x2="-68.35" y2="-45.6" stroke="rgb(0,0,255)" stroke-width="0.0254"/>
<path d="M -68.35 -45.6 A 3.85 3.85 0 0 1 -64.5 -49.45" fill="none" stroke="rgb(0,0,255)" stroke-width="0.0254"/>
<line x1="-64.5" y1="-49.45" x2="64.5" y2="-49.45" stroke="rgb(0,0,255)" stroke-width="0.0254"/>
<path d="M 64.5 -49.45 A 3.85 3.85 0 0 1 68.35 -45.6" fill="none" stroke="rgb(0,0,255)" stroke-width="0.0254"/>
<line x1="68.35" y1="-45.6" x2="68.35" y2="45.6" stroke="rgb(0,0,255)" stroke-width="0.0254"/>
<path d="M 68.35 45.6 A 3.85 3.85 0 0 1 64.5 49.45" fill="none" stroke="rgb(0,0,255)" stroke-width="0.0254"/>
<line x1="64.5" y1="49.45" x2="-64.5" y2="49.45" stroke="rgb(0,0,255)" stroke-width="0.0254"/>
<path d="M -64.5 49.45 A 3.85 3.85 0 0 1 -68.35 45.6" fill="none" stroke="rgb(0,0,255)" stroke-width="0.0254"/>
<line x1="-68.35" y1="45.6" x2="-68.35" y2="44.5" stroke="rgb(0,0,255)" stroke-width="0.0254"/>
</g>
</g>
</g>
</svg>
