<?xml version="1.0" encoding="UTF-8" standalone="no"?>
<!-- Created with Inkscape (http://www.inkscape.org/) -->

<svg
   xmlns:dc="http://purl.org/dc/elements/1.1/"
   xmlns:cc="http://creativecommons.org/ns#"
   xmlns:rdf="http://www.w3.org/1999/02/22-rdf-syntax-ns#"
   xmlns:svg="http://www.w3.org/2000/svg"
   xmlns="http://www.w3.org/2000/svg"
   xmlns:sodipodi="http://sodipodi.sourceforge.net/DTD/sodipodi-0.dtd"
   xmlns:inkscape="http://www.inkscape.org/namespaces/inkscape"
   width="210mm"
   height="297mm"
   viewBox="0 0 210 297"
   version="1.1"
   id="svg8"
   inkscape:version="0.92.2 (5c3e80d, 2017-08-06)"
   sodipodi:docname="CAS_logo_idea_2.svg">
  <defs
     id="defs2" />
  <sodipodi:namedview
     id="base"
     pagecolor="#ffffff"
     bordercolor="#666666"
     borderopacity="1.0"
     inkscape:pageopacity="0.0"
     inkscape:pageshadow="2"
     inkscape:zoom="1.4"
     inkscape:cx="269.16893"
     inkscape:cy="654.25779"
     inkscape:document-units="mm"
     inkscape:current-layer="layer1"
     showgrid="false"
     inkscape:window-width="1920"
     inkscape:window-height="1017"
     inkscape:window-x="-8"
     inkscape:window-y="-8"
     inkscape:window-maximized="1" />
  <metadata
     id="metadata5">
    <rdf:RDF>
      <cc:Work
         rdf:about="">
        <dc:format>image/svg+xml</dc:format>
        <dc:type
           rdf:resource="http://purl.org/dc/dcmitype/StillImage" />
        <dc:title></dc:title>
      </cc:Work>
    </rdf:RDF>
  </metadata>
  <g
     inkscape:label="Layer 1"
     inkscape:groupmode="layer"
     id="layer1">
    <path
       style="color:#000000;font-style:normal;font-variant:normal;font-weight:normal;font-stretch:normal;font-size:medium;line-height:normal;font-family:sans-serif;font-variant-ligatures:normal;font-variant-position:normal;font-variant-caps:normal;font-variant-numeric:normal;font-variant-alternates:normal;font-feature-settings:normal;text-indent:0;text-align:start;text-decoration:none;text-decoration-line:none;text-decoration-style:solid;text-decoration-color:#000000;letter-spacing:normal;word-spacing:normal;text-transform:none;writing-mode:lr-tb;direction:ltr;text-orientation:mixed;dominant-baseline:auto;baseline-shift:baseline;text-anchor:start;white-space:normal;shape-padding:0;clip-rule:nonzero;display:inline;overflow:visible;visibility:visible;opacity:1;isolation:auto;mix-blend-mode:normal;color-interpolation:sRGB;color-interpolation-filters:linearRGB;solid-color:#000000;solid-opacity:1;vector-effect:none;fill:#000000;fill-opacity:1;fill-rule:nonzero;stroke:none;stroke-width:5;stroke-linecap:round;stroke-linejoin:round;stroke-miterlimit:0;stroke-dasharray:none;stroke-dashoffset:0;stroke-opacity:1;color-rendering:auto;image-rendering:auto;shape-rendering:auto;text-rendering:auto;enable-background:accumulate"
       d="m 92.411443,127.03307 c -1.387065,0 -2.711213,0.15002 -4.001454,0.47196 0.0219,1.06282 1.107748,3.44535 1.943403,4.68897 0.630817,-0.10416 1.396412,-0.16072 2.058051,-0.16072 6.484823,0 11.687657,5.20284 11.687657,11.68766 0,6.48483 -5.202834,11.68714 -11.687657,11.68714 -6.484821,0 -11.689726,-5.20231 -11.689726,-11.68714 0,-3.22562 1.335974,-6.27545 3.428436,-8.38413 -0.584009,-1.03475 -1.408193,-2.45097 -2.042151,-4.67053 -3.834603,3.0628 -6.385981,7.78842 -6.385981,13.05466 0,9.18703 7.502398,16.68736 16.689422,16.68736 9.187027,0 16.687357,-7.50033 16.687357,-16.68736 0,-9.18702 -7.50033,-16.68787 -16.687357,-16.68787 z"
       id="path815-6"
       inkscape:connector-curvature="0"
       sodipodi:nodetypes="sccssssccssss" />
    <path
       style="color:#000000;font-style:normal;font-variant:normal;font-weight:normal;font-stretch:normal;font-size:medium;line-height:normal;font-family:sans-serif;font-variant-ligatures:normal;font-variant-position:normal;font-variant-caps:normal;font-variant-numeric:normal;font-variant-alternates:normal;font-feature-settings:normal;text-indent:0;text-align:start;text-decoration:none;text-decoration-line:none;text-decoration-style:solid;text-decoration-color:#000000;letter-spacing:normal;word-spacing:normal;text-transform:none;writing-mode:lr-tb;direction:ltr;text-orientation:mixed;dominant-baseline:auto;baseline-shift:baseline;text-anchor:start;white-space:normal;shape-padding:0;clip-rule:nonzero;display:inline;overflow:visible;visibility:visible;opacity:1;isolation:auto;mix-blend-mode:normal;color-interpolation:sRGB;color-interpolation-filters:linearRGB;solid-color:#000000;solid-opacity:1;vector-effect:none;fill:#72a000;fill-opacity:1;fill-rule:nonzero;stroke:none;stroke-width:5;stroke-linecap:round;stroke-linejoin:round;stroke-miterlimit:0;stroke-dasharray:none;stroke-dashoffset:0;stroke-opacity:1;color-rendering:auto;image-rendering:auto;shape-rendering:auto;text-rendering:auto;enable-background:accumulate"
       d="m 92.411442,105.47831 c -3.44297,0 -6.173329,2.43413 -7.898744,5.52938 -1.725414,3.09526 -2.681488,7.08597 -2.681488,11.46494 0,4.37897 0.956074,8.37175 2.681488,11.467 1.725415,3.09526 4.455774,5.52731 7.898744,5.52731 2.806404,0 5.137219,-1.6164 6.837826,-3.8902 -1.209892,-0.9563 -2.83168,-1.99218 -4.511196,-2.35127 -0.802733,0.84085 -1.660491,1.24126 -2.32663,1.24126 -1.019201,0 -2.33072,-0.8121 -3.529499,-2.96261 -1.198782,-2.15052 -2.050521,-5.40568 -2.050521,-9.03149 0,-3.62582 0.851739,-6.88047 2.050521,-9.03098 1.198779,-2.15052 2.510298,-2.96312 3.529499,-2.96312 0.676101,0 1.564016,0.44438 2.378988,1.3129 1.238229,-0.0586 3.279894,-1.20841 4.660686,-2.27565 -1.706394,-2.32352 -4.194831,-4.03747 -7.039674,-4.03747 z m 9.831788,10.2534 c -1.66205,0.99017 -2.839375,1.70374 -4.677748,2.29403 0.258382,1.32764 0.423914,2.93782 0.423914,4.44689 0,1.48467 -0.194286,3.08905 -0.444921,4.39899 1.561748,0.40601 3.323915,1.21262 4.641575,2.18593 0.49197,-1.99823 0.80356,-4.30514 0.80356,-6.58492 0,-2.24397 -0.26938,-4.76912 -0.74638,-6.74092 z"
       id="path815-1"
       inkscape:connector-curvature="0"
       sodipodi:nodetypes="scscsccscscsccsccsccsc" />
  </g>
  <g
     inkscape:groupmode="layer"
     id="layer2"
     inkscape:label="Layer 2">
    <path
       style="color:#000000;font-style:normal;font-variant:normal;font-weight:normal;font-stretch:normal;font-size:medium;line-height:normal;font-family:sans-serif;font-variant-ligatures:normal;font-variant-position:normal;font-variant-caps:normal;font-variant-numeric:normal;font-variant-alternates:normal;font-feature-settings:normal;text-indent:0;text-align:start;text-decoration:none;text-decoration-line:none;text-decoration-style:solid;text-decoration-color:#000000;letter-spacing:normal;word-spacing:normal;text-transform:none;writing-mode:lr-tb;direction:ltr;text-orientation:mixed;dominant-baseline:auto;baseline-shift:baseline;text-anchor:start;white-space:normal;shape-padding:0;clip-rule:nonzero;display:inline;overflow:visible;visibility:visible;opacity:1;isolation:auto;mix-blend-mode:normal;color-interpolation:sRGB;color-interpolation-filters:linearRGB;solid-color:#000000;solid-opacity:1;vector-effect:none;fill:#000000;fill-opacity:1;fill-rule:nonzero;stroke:none;stroke-width:5;stroke-linecap:round;stroke-linejoin:round;stroke-miterlimit:0;stroke-dasharray:none;stroke-dashoffset:0;stroke-opacity:1;color-rendering:auto;image-rendering:auto;shape-rendering:auto;text-rendering:auto;enable-background:accumulate"
       d="m 80.695607,100.91798 c -1.761276,0.0998 -3.351268,0.35471 -4.991185,0.66297 0.169958,5.03491 2.730971,9.80079 6.407362,12.76091 0.466637,-1.48783 0.952846,-2.88619 2.280996,-4.77129 -2.153811,-2.117 -3.698483,-5.06693 -3.698483,-8.34574 0,-0.0865 -5.29e-4,-0.22081 0.0013,-0.30685 z m 23.488283,0.31275 c 0,6.48482 -5.315052,11.68331 -11.799876,11.68331 -0.677793,0 -1.340583,-0.0597 -1.985925,-0.16898 -1.085554,1.47933 -1.778426,3.16489 -2.102713,4.62607 1.259475,0.3059 2.737832,0.54312 4.088638,0.54312 9.008396,0 16.448536,-7.59049 16.732386,-16.53249 -1.66799,-0.34556 -3.39828,-0.51315 -4.91366,-0.60863 z"
       id="path815-7"
       inkscape:connector-curvature="0"
       sodipodi:nodetypes="ccccscccccscccc" />
    <path
       style="color:#000000;font-style:normal;font-variant:normal;font-weight:normal;font-stretch:normal;font-size:medium;line-height:normal;font-family:sans-serif;font-variant-ligatures:normal;font-variant-position:normal;font-variant-caps:normal;font-variant-numeric:normal;font-variant-alternates:normal;font-feature-settings:normal;text-indent:0;text-align:start;text-decoration:none;text-decoration-line:none;text-decoration-style:solid;text-decoration-color:#000000;letter-spacing:normal;word-spacing:normal;text-transform:none;writing-mode:lr-tb;direction:ltr;text-orientation:mixed;dominant-baseline:auto;baseline-shift:baseline;text-anchor:start;white-space:normal;shape-padding:0;clip-rule:nonzero;display:inline;overflow:visible;visibility:visible;opacity:1;isolation:auto;mix-blend-mode:normal;color-interpolation:sRGB;color-interpolation-filters:linearRGB;solid-color:#000000;solid-opacity:1;vector-effect:none;fill:#2c89a0;fill-opacity:1;fill-rule:nonzero;stroke:none;stroke-width:5;stroke-linecap:round;stroke-linejoin:round;stroke-miterlimit:0;stroke-dasharray:none;stroke-dashoffset:0;stroke-opacity:1;color-rendering:auto;image-rendering:auto;shape-rendering:auto;text-rendering:auto;enable-background:accumulate"
       d="m 92.408345,94.19418 c -12.179093,0 -23.658226,1.710939 -33.767448,4.766636 v 5.248774 c 9.933427,-3.17444 21.467665,-5.015198 33.767448,-5.015198 12.301635,0 23.837135,1.841428 33.771575,5.016748 V 98.961848 C 116.06937,95.905561 104.58869,94.19418 92.408345,94.19418 Z"
       id="path1528"
       inkscape:connector-curvature="0"
       sodipodi:nodetypes="sccsccs" />
  </g>
</svg>
