<?xml version="1.0" encoding="UTF-8" standalone="no"?>
<!-- Created with Inkscape (http://www.inkscape.org/) -->

<svg
   xmlns:dc="http://purl.org/dc/elements/1.1/"
   xmlns:cc="http://creativecommons.org/ns#"
   xmlns:rdf="http://www.w3.org/1999/02/22-rdf-syntax-ns#"
   xmlns:svg="http://www.w3.org/2000/svg"
   xmlns="http://www.w3.org/2000/svg"
   xmlns:sodipodi="http://sodipodi.sourceforge.net/DTD/sodipodi-0.dtd"
   xmlns:inkscape="http://www.inkscape.org/namespaces/inkscape"
   width="210mm"
   height="297mm"
   viewBox="0 0 210 297"
   version="1.1"
   id="svg8"
   inkscape:version="0.92.2 (5c3e80d, 2017-08-06)"
   sodipodi:docname="CAS_logo_idea.svg">
  <defs
     id="defs2" />
  <sodipodi:namedview
     id="base"
     pagecolor="#ffffff"
     bordercolor="#666666"
     borderopacity="1.0"
     inkscape:pageopacity="0.0"
     inkscape:pageshadow="2"
     inkscape:zoom="0.7"
     inkscape:cx="311.82202"
     inkscape:cy="660.40904"
     inkscape:document-units="mm"
     inkscape:current-layer="layer2"
     showgrid="false"
     inkscape:window-width="958"
     inkscape:window-height="1008"
     inkscape:window-x="953"
     inkscape:window-y="0"
     inkscape:window-maximized="0" />
  <metadata
     id="metadata5">
    <rdf:RDF>
      <cc:Work
         rdf:about="">
        <dc:format>image/svg+xml</dc:format>
        <dc:type
           rdf:resource="http://purl.org/dc/dcmitype/StillImage" />
        <dc:title></dc:title>
      </cc:Work>
    </rdf:RDF>
  </metadata>
  <g
     inkscape:label="Layer 1"
     inkscape:groupmode="layer"
     id="layer1">
    <path
       style="color:#000000;font-style:normal;font-variant:normal;font-weight:normal;font-stretch:normal;font-size:medium;line-height:normal;font-family:sans-serif;font-variant-ligatures:normal;font-variant-position:normal;font-variant-caps:normal;font-variant-numeric:normal;font-variant-alternates:normal;font-feature-settings:normal;text-indent:0;text-align:start;text-decoration:none;text-decoration-line:none;text-decoration-style:solid;text-decoration-color:#000000;letter-spacing:normal;word-spacing:normal;text-transform:none;writing-mode:lr-tb;direction:ltr;text-orientation:mixed;dominant-baseline:auto;baseline-shift:baseline;text-anchor:start;white-space:normal;shape-padding:0;clip-rule:nonzero;display:inline;overflow:visible;visibility:visible;opacity:1;isolation:auto;mix-blend-mode:normal;color-interpolation:sRGB;color-interpolation-filters:linearRGB;solid-color:#000000;solid-opacity:1;vector-effect:none;fill:#000000;fill-opacity:1;fill-rule:nonzero;stroke:none;stroke-width:5;stroke-linecap:round;stroke-linejoin:round;stroke-miterlimit:0;stroke-dasharray:none;stroke-dashoffset:0;stroke-opacity:1;color-rendering:auto;image-rendering:auto;shape-rendering:auto;text-rendering:auto;enable-background:accumulate"
       d="m 92.411443,127.03307 c -1.387065,0 -2.711213,0.15002 -4.001454,0.47196 0.0219,1.06282 1.107748,3.44535 1.943403,4.68897 0.630817,-0.10416 1.396412,-0.16072 2.058051,-0.16072 6.484823,0 11.687657,5.20284 11.687657,11.68766 0,6.48483 -5.202834,11.68714 -11.687657,11.68714 -6.484821,0 -11.689726,-5.20231 -11.689726,-11.68714 0,-3.22562 1.335974,-6.27545 3.428436,-8.38413 -0.584009,-1.03475 -1.408193,-2.45097 -2.042151,-4.67053 -3.834603,3.0628 -6.385981,7.78842 -6.385981,13.05466 0,9.18703 7.502398,16.68736 16.689422,16.68736 9.187027,0 16.687357,-7.50033 16.687357,-16.68736 0,-9.18702 -7.50033,-16.68787 -16.687357,-16.68787 z"
       id="path815-6"
       inkscape:connector-curvature="0"
       sodipodi:nodetypes="sccssssccssss" />
    <path
       style="color:#000000;font-style:normal;font-variant:normal;font-weight:normal;font-stretch:normal;font-size:medium;line-height:normal;font-family:sans-serif;font-variant-ligatures:normal;font-variant-position:normal;font-variant-caps:normal;font-variant-numeric:normal;font-variant-alternates:normal;font-feature-settings:normal;text-indent:0;text-align:start;text-decoration:none;text-decoration-line:none;text-decoration-style:solid;text-decoration-color:#000000;letter-spacing:normal;word-spacing:normal;text-transform:none;writing-mode:lr-tb;direction:ltr;text-orientation:mixed;dominant-baseline:auto;baseline-shift:baseline;text-anchor:start;white-space:normal;shape-padding:0;clip-rule:nonzero;display:inline;overflow:visible;visibility:visible;opacity:1;isolation:auto;mix-blend-mode:normal;color-interpolation:sRGB;color-interpolation-filters:linearRGB;solid-color:#000000;solid-opacity:1;vector-effect:none;fill:#72a000;fill-opacity:1;fill-rule:nonzero;stroke:none;stroke-width:5;stroke-linecap:round;stroke-linejoin:round;stroke-miterlimit:0;stroke-dasharray:none;stroke-dashoffset:0;stroke-opacity:1;color-rendering:auto;image-rendering:auto;shape-rendering:auto;text-rendering:auto;enable-background:accumulate"
       d="m 92.411441,105.47831 c -3.44297,0 -6.173329,2.43413 -7.898744,5.52938 -1.725414,3.09526 -2.681488,7.08597 -2.681488,11.46494 0,4.37897 0.956074,8.37175 2.681488,11.467 1.725415,3.09526 4.455774,5.52731 7.898744,5.52731 2.806404,0 5.137219,-1.6164 6.837826,-3.8902 -1.209892,-0.9563 -2.83168,-1.99218 -4.511196,-2.35127 -0.802733,0.84085 -1.660491,1.24126 -2.32663,1.24126 -1.019201,0 -2.33072,-0.8121 -3.529499,-2.96261 -1.198782,-2.15052 -2.050521,-5.40568 -2.050521,-9.03149 0,-3.62582 0.851739,-6.88047 2.050521,-9.03098 1.198779,-2.15052 2.510298,-2.96312 3.529499,-2.96312 0.676101,0 1.564016,0.44438 2.378988,1.3129 1.238229,-0.0586 3.279894,-1.20841 4.660686,-2.27565 -1.706394,-2.32352 -4.194831,-4.03747 -7.039674,-4.03747 z m 9.831789,10.53737 c -1.66205,0.99017 -2.822672,1.58681 -4.661045,2.1771 0.258382,1.32764 0.40721,2.77078 0.40721,4.27985 0,1.48467 -0.194286,3.08905 -0.444921,4.39899 1.561748,0.40601 3.323916,1.21262 4.641576,2.18593 0.49197,-1.99823 0.80356,-4.30514 0.80356,-6.58492 0,-2.24397 -0.26938,-4.48515 -0.74638,-6.45695 z"
       id="path815-1"
       inkscape:connector-curvature="0"
       sodipodi:nodetypes="scscsccscscsccsccsccsc" />
  </g>
  <g
     inkscape:groupmode="layer"
     id="layer2"
     inkscape:label="Layer 2">
    <path
       style="color:#000000;font-style:normal;font-variant:normal;font-weight:normal;font-stretch:normal;font-size:medium;line-height:normal;font-family:sans-serif;font-variant-ligatures:normal;font-variant-position:normal;font-variant-caps:normal;font-variant-numeric:normal;font-variant-alternates:normal;font-feature-settings:normal;text-indent:0;text-align:start;text-decoration:none;text-decoration-line:none;text-decoration-style:solid;text-decoration-color:#000000;letter-spacing:normal;word-spacing:normal;text-transform:none;writing-mode:lr-tb;direction:ltr;text-orientation:mixed;dominant-baseline:auto;baseline-shift:baseline;text-anchor:start;white-space:normal;shape-padding:0;clip-rule:nonzero;display:inline;overflow:visible;visibility:visible;opacity:1;isolation:auto;mix-blend-mode:normal;color-interpolation:sRGB;color-interpolation-filters:linearRGB;solid-color:#000000;solid-opacity:1;vector-effect:none;fill:#000000;fill-opacity:1;fill-rule:nonzero;stroke:none;stroke-width:18.89763832;stroke-linecap:round;stroke-linejoin:round;stroke-miterlimit:0;stroke-dasharray:none;stroke-dashoffset:0;stroke-opacity:1;color-rendering:auto;image-rendering:auto;shape-rendering:auto;text-rendering:auto;enable-background:accumulate"
       d="m 305.11328,381.60742 c -6.38893,0.82364 -12.6847,1.82515 -18.88281,2.99024 0.64236,19.02955 10.32178,36.37272 24.2168,47.56054 1.76367,-5.62329 3.60131,-10.90841 8.62109,-18.0332 -8.14039,-8.00126 -13.97852,-19.15062 -13.97852,-31.54297 0,-0.32694 0.0165,-0.64943 0.0234,-0.97461 z m 88.3086,0 c 0.007,0.32518 0.0234,0.64767 0.0234,0.97461 0,24.50956 -19.66426,44.17969 -44.17383,44.17969 -2.56174,0 -5.06677,-0.22565 -7.50586,-0.63867 -4.10288,5.5912 -6.72161,11.9618 -7.94726,17.48437 4.76022,1.15616 10.34771,2.05274 15.45312,2.05274 34.04748,0 61.94673,-27.26795 63.01954,-61.06446 -6.19373,-1.16403 -12.48488,-2.16521 -18.86914,-2.98828 z"
       transform="scale(0.26458333)"
       id="path815-7"
       inkscape:connector-curvature="0"
       sodipodi:nodetypes="ccccsccssccscc" />
    <path
       style="color:#000000;font-style:normal;font-variant:normal;font-weight:normal;font-stretch:normal;font-size:medium;line-height:normal;font-family:sans-serif;font-variant-ligatures:normal;font-variant-position:normal;font-variant-caps:normal;font-variant-numeric:normal;font-variant-alternates:normal;font-feature-settings:normal;text-indent:0;text-align:start;text-decoration:none;text-decoration-line:none;text-decoration-style:solid;text-decoration-color:#000000;letter-spacing:normal;word-spacing:normal;text-transform:none;writing-mode:lr-tb;direction:ltr;text-orientation:mixed;dominant-baseline:auto;baseline-shift:baseline;text-anchor:start;white-space:normal;shape-padding:0;clip-rule:nonzero;display:inline;overflow:visible;visibility:visible;opacity:1;isolation:auto;mix-blend-mode:normal;color-interpolation:sRGB;color-interpolation-filters:linearRGB;solid-color:#000000;solid-opacity:1;vector-effect:none;fill:#000000;fill-opacity:1;fill-rule:nonzero;stroke:none;stroke-width:5.90556288;stroke-linecap:round;stroke-linejoin:round;stroke-miterlimit:0;stroke-dasharray:none;stroke-dashoffset:0;stroke-opacity:1;color-rendering:auto;image-rendering:auto;shape-rendering:auto;text-rendering:auto;enable-background:accumulate"
       d="m 92.410156,96.771298 c -18.960946,0 -36.178375,5.376332 -48.814453,14.261722 -12.636078,8.88539 -20.769531,21.47186 -20.769531,35.54492 0,14.07307 8.133453,26.66149 20.769531,35.54688 12.636078,8.88538 29.853507,14.25976 48.814453,14.25976 18.960944,0 36.178374,-5.37438 48.814454,-14.25976 12.63608,-8.88539 20.76953,-21.47381 20.76953,-35.54688 0,-14.07306 -8.13345,-26.65953 -20.76953,-35.54492 C 128.58853,102.14763 111.3711,96.771298 92.410156,96.771298 Z m 0,5.906252 c 17.838814,0 33.938054,5.11315 45.417964,13.18555 11.47992,8.0724 18.26172,18.9112 18.26172,30.71484 0,11.80365 -6.7818,22.6444 -18.26172,30.7168 -11.47991,8.0724 -27.57915,13.18555 -45.417964,13.18555 -17.838817,0 -33.938054,-5.11315 -45.417968,-13.18555 -11.479915,-8.0724 -18.261719,-18.91315 -18.261719,-30.7168 0,-11.80364 6.781804,-22.64244 18.261719,-30.71484 11.479914,-8.0724 27.579151,-13.18555 45.417968,-13.18555 z"
       id="path940"
       inkscape:connector-curvature="0" />
  </g>
</svg>
